<svg width="67" height="66" viewBox="0 0 67 66" fill="none" xmlns="http://www.w3.org/2000/svg">
<path d="M58.25 4.125H8.75C6.48125 4.125 4.625 5.98125 4.625 8.25V57.75C4.625 60.0187 6.48125 61.875 8.75 61.875H39.6875V57.75C39.6875 51.975 44.225 47.4375 50 47.4375V43.3125C41.9562 43.3125 35.5625 49.7062 35.5625 57.75H29.375V49.5H25.25V57.75H8.75V8.25H25.25V37.125H29.375V26.8125H37.625V22.6875H29.375V8.25H58.25V22.6875H50V26.8125H58.25V57.75H50V61.875H58.25C60.5187 61.875 62.375 60.0187 62.375 57.75V8.25C62.375 5.98125 60.5187 4.125 58.25 4.125Z" fill="white"/>
</svg>
