<svg width="81" height="80" viewBox="0 0 81 80" fill="none" xmlns="http://www.w3.org/2000/svg">
<path d="M60.9 26.6667C60.9 28.4348 60.1976 30.1305 58.9474 31.3807C57.6971 32.631 56.0014 33.3333 54.2333 33.3333C52.4652 33.3333 50.7695 32.631 49.5193 31.3807C48.269 30.1305 47.5667 28.4348 47.5667 26.6667C47.5667 24.8986 48.269 23.2029 49.5193 21.9526C50.7695 20.7024 52.4652 20 54.2333 20C56.0014 20 57.6971 20.7024 58.9474 21.9526C60.1976 23.2029 60.9 24.8986 60.9 26.6667Z" fill="black"/>
<path fill-rule="evenodd" clip-rule="evenodd" d="M40.71 4.1674H41.09C48.7867 4.1674 54.8167 4.1674 59.5233 4.80073C64.3366 5.4474 68.1367 6.80073 71.12 9.78073C74.1033 12.7641 75.4533 16.5641 76.1 21.3807C76.7333 26.0841 76.7333 32.1141 76.7333 39.8107V40.1041C76.7333 46.4674 76.7333 51.6741 76.3867 55.9141C76.04 60.1807 75.33 63.7374 73.7366 66.6974C73.0389 67.9996 72.1666 69.1741 71.12 70.2207C68.1367 73.2041 64.3367 74.5541 59.52 75.2007C54.8167 75.8341 48.7867 75.8341 41.09 75.8341H40.71C33.0133 75.8341 26.9833 75.8341 22.2766 75.2007C17.4633 74.5541 13.6633 73.2007 10.68 70.2207C8.03665 67.5774 6.66998 64.2874 5.94665 60.2007C5.22998 56.1907 5.09998 51.2007 5.07332 45.0074C5.06887 43.4296 5.06665 41.7607 5.06665 40.0007V39.8074C5.06665 32.1107 5.06665 26.0807 5.69998 21.3741C6.34665 16.5607 7.69998 12.7607 10.68 9.7774C13.6633 6.79406 17.4633 5.44406 22.28 4.7974C26.9833 4.16406 33.0133 4.16406 40.71 4.16406M22.9433 9.75073C18.6833 10.3241 16.1133 11.4174 14.2167 13.3141C12.3166 15.2141 11.2267 17.7807 10.6533 22.0441C10.0733 26.3774 10.0667 32.0707 10.0667 39.9974V42.8107L13.4033 39.8907C14.8669 38.6096 16.7627 37.9326 18.7068 37.997C20.6508 38.0613 22.4977 38.8622 23.8733 40.2374L38.1733 54.5374C39.283 55.6469 40.7485 56.3293 42.3118 56.4647C43.8751 56.6 45.4361 56.1796 46.72 55.2774L47.7133 54.5774C49.5656 53.2758 51.8047 52.6413 54.0644 52.7775C56.3242 52.9138 58.4708 53.8127 60.1533 55.3274L69.5867 63.8174C70.54 61.8241 71.1033 59.2041 71.4033 55.5074C71.73 51.4907 71.7333 46.4841 71.7333 39.9974C71.7333 32.0707 71.7266 26.3774 71.1466 22.0441C70.5733 17.7807 69.48 15.2107 67.5833 13.3107C65.6833 11.4141 63.1166 10.3241 58.8533 9.75073C54.52 9.17073 48.8266 9.16406 40.9 9.16406C32.9733 9.16406 27.2766 9.17073 22.9433 9.75073Z" fill="black"/>
</svg>