<svg width="75" height="74" viewBox="0 0 75 74" fill="none" xmlns="http://www.w3.org/2000/svg">
<path d="M37.5 4.625C46.087 4.625 54.3223 8.03617 60.3942 14.1081C66.4661 20.18 69.8773 28.4153 69.8773 37.0023C69.8773 45.5893 66.4661 53.8246 60.3942 59.8965C54.3223 65.9684 46.087 69.3796 37.5 69.3796C28.913 69.3796 20.6777 65.9684 14.6058 59.8965C8.53385 53.8246 5.12268 45.5893 5.12268 37.0023C5.12268 28.4153 8.53385 20.18 14.6058 14.1081C20.6777 8.03617 28.913 4.625 37.5 4.625ZM42.3562 24.5032C44.7612 24.5032 46.713 22.8336 46.713 20.3592C46.713 17.8849 44.7566 16.2152 42.3562 16.2152C39.9512 16.2152 38.0087 17.8849 38.0087 20.3592C38.0087 22.8336 39.9512 24.5032 42.3562 24.5032ZM43.2026 50.5281C43.2026 50.0332 43.3737 48.7475 43.2766 48.0167L39.4749 52.392C38.6886 53.2199 37.7035 53.7934 37.241 53.6407C37.0312 53.5635 36.8558 53.414 36.7464 53.219C36.637 53.024 36.6008 52.7963 36.6444 52.577L42.9806 32.56C43.4986 30.0209 42.0741 27.7037 39.054 27.4077C35.8674 27.4077 31.1776 30.6406 28.324 34.743C28.324 35.2332 28.2315 36.4542 28.3286 37.185L32.1257 32.8051C32.912 31.9865 33.8277 31.4084 34.2902 31.5656C34.5181 31.6474 34.7048 31.8153 34.8103 32.0332C34.9158 32.2511 34.9317 32.5017 34.8545 32.7311L28.5737 52.651C27.8476 54.982 29.2212 57.2667 32.5512 57.7847C37.4537 57.7847 40.349 54.6305 43.2072 50.5281H43.2026Z" fill="white"/>
</svg>
