<svg width="67" height="66" viewBox="0 0 67 66" fill="none" xmlns="http://www.w3.org/2000/svg">
<path fill-rule="evenodd" clip-rule="evenodd" d="M66.1992 0V51.3334H47.8658V66L25.4992 51.3334H0.199219V0H66.1992ZM58.8658 7.33339H7.53261V44H27.6893L40.5326 52.4224V44H58.8658V7.33339ZM33.3599 34.5584C34.5344 34.5584 35.5048 34.9451 36.2711 35.7185C37.0375 36.492 37.4206 37.4659 37.4205 38.6404C37.4205 39.8006 37.0374 40.7674 36.2711 41.5408C35.5047 42.3142 34.5343 42.701 33.3599 42.701C32.1568 42.701 31.1757 42.3142 30.4166 41.5408C29.6574 40.7674 29.2779 39.7791 29.2779 38.576C29.2779 37.4301 29.6646 36.4741 30.438 35.7077C31.2115 34.9414 32.1854 34.5583 33.3599 34.5584ZM34.9498 11.1834C38.2154 11.1834 40.7004 11.9568 42.4048 13.5037C43.9087 14.893 44.6607 16.6977 44.6607 18.9178C44.6607 20.4217 44.2955 21.7071 43.565 22.7741C42.9257 23.7078 41.848 24.71 40.3317 25.7807L39.6548 26.2439C38.2226 27.2036 37.3417 27.9376 37.0123 28.446C36.6828 28.9546 36.5181 29.8606 36.5181 31.1639V32.0447H30.1802V30.1541C30.1802 28.335 30.3664 27.0674 30.7388 26.3514C30.9537 25.9359 31.2401 25.567 31.5982 25.2448L31.9982 24.9116C32.1624 24.7815 32.3576 24.6324 32.5839 24.4643L34.8887 22.8143C35.8621 22.1 36.5234 21.5388 36.8727 21.1307C37.3381 20.5864 37.5709 19.949 37.5709 19.2185C37.5709 18.3019 37.245 17.575 36.5934 17.0378C35.9417 16.5007 33.94 16.2322 33.94 16.2322C32.1067 16.2322 29.8938 16.9698 27.3013 18.4451L25.3892 13.6756C28.5689 12.0141 31.7558 11.1834 34.9498 11.1834Z" fill="black"/>
</svg>