<svg width="55" height="68" viewBox="0 0 55 68" fill="none" xmlns="http://www.w3.org/2000/svg">
<path d="M27.8001 0.384766C13.6251 0.384766 0.800049 11.3864 0.800049 28.4014C0.800049 39.2664 9.0688 52.0448 25.5726 66.7706C26.8551 67.8981 28.7788 67.8981 30.0613 66.7706C46.5313 52.0448 54.8001 39.2664 54.8001 28.4014C54.8001 11.3864 41.9751 0.384766 27.8001 0.384766ZM27.8001 34.5514C24.0876 34.5514 21.0501 31.4764 21.0501 27.7181C21.0501 23.9598 24.0876 20.8848 27.8001 20.8848C31.5126 20.8848 34.5501 23.9598 34.5501 27.7181C34.5501 31.4764 31.5126 34.5514 27.8001 34.5514Z" fill="white"/>
</svg>
