<svg width="69" height="68" viewBox="0 0 69 68" fill="#FFFFFF" xmlns="http://www.w3.org/2000/svg">
<path d="M66.075 17C66.075 16.15 65.65 15.5125 65.0125 15.0875L50.1375 6.5875C49.7125 6.375 49.5 6.375 49.075 6.375C48.65 6.375 48.4375 6.375 48.0125 6.5875L34.2 14.45L20.3875 6.5875C19.9625 6.375 19.75 6.375 19.325 6.375C18.9 6.375 18.6875 6.375 18.2625 6.5875L3.38745 15.0875C2.74995 15.5125 2.32495 16.15 2.32495 17V59.5C2.32495 60.775 3.17495 61.625 4.44995 61.625C4.87495 61.625 5.08745 61.4125 5.51245 61.4125L19.325 53.55L33.1375 61.4125C33.5625 61.625 33.775 61.625 34.2 61.625C34.625 61.625 34.8375 61.625 35.2625 61.4125L49.075 53.55L62.8875 61.4125C63.1 61.625 63.525 61.625 63.95 61.625C65.225 61.625 66.075 60.775 66.075 59.5V17ZM6.57495 18.275L17.2 12.1125V49.725L6.57495 55.8875V18.275ZM32.075 55.8875L21.45 49.725V12.1125L32.075 18.275V55.8875ZM46.95 49.725L36.325 55.8875V18.275L46.95 12.1125V49.725ZM51.2 49.725V12.1125L61.825 18.275V55.8875L51.2 49.725Z" fill="#FFFFFF"/>
</svg>
