<svg width="67" height="66" viewBox="0 0 67 66" fill="none" xmlns="http://www.w3.org/2000/svg">
<path d="M37.625 41.25H17C11.8135 41.25 9.223 41.25 7.6115 39.6385C6 38.027 6 35.4365 6 30.25V19.25C6 14.0635 6 11.473 7.6115 9.8615C9.223 8.25 11.8135 8.25 17 8.25H50C55.1865 8.25 57.777 8.25 59.3885 9.8615C61 11.473 61 14.0635 61 19.25V33C61 35.563 61 36.8445 60.582 37.8538C60.3056 38.5215 59.9003 39.1282 59.3893 39.6393C58.8782 40.1503 58.2715 40.5556 57.6037 40.832C56.5945 41.25 55.313 41.25 52.75 41.25" stroke="black" stroke-width="5" stroke-linecap="round" stroke-linejoin="round"/>
<path d="M36.25 46.75C36.25 44.562 37.1192 42.4635 38.6664 40.9164C40.2135 39.3692 42.312 38.5 44.5 38.5V33C44.5 30.812 45.3692 28.7135 46.9164 27.1664C48.4635 25.6192 50.562 24.75 52.75 24.75V39.875C52.75 46.2963 52.75 49.5055 51.452 51.9365C50.4265 53.8551 48.8551 55.4265 46.9365 56.452C44.5055 57.75 41.2963 57.75 34.875 57.75H33.5C28.374 57.75 25.811 57.75 23.7925 56.9112C22.4575 56.3591 21.2443 55.5493 20.2223 54.5282C19.2003 53.5071 18.3894 52.2947 17.836 50.9603C17 48.939 17 46.376 17 41.25M39 24.75C39 26.2087 38.4205 27.6076 37.3891 28.6391C36.3576 29.6705 34.9587 30.25 33.5 30.25C32.0413 30.25 30.6424 29.6705 29.6109 28.6391C28.5795 27.6076 28 26.2087 28 24.75C28 23.2913 28.5795 21.8924 29.6109 20.8609C30.6424 19.8295 32.0413 19.25 33.5 19.25C34.9587 19.25 36.3576 19.8295 37.3891 20.8609C38.4205 21.8924 39 23.2913 39 24.75Z" stroke="black" stroke-width="5" stroke-linecap="round" stroke-linejoin="round"/>
</svg>