<svg width="214" height="214" viewBox="0 0 214 214" fill="none" xmlns="http://www.w3.org/2000/svg">
<path d="M54.7483 41.4447C68.6776 27.7259 87.4492 20.0443 107 20.0625C126.581 20.0625 145.377 27.7398 159.252 41.4447C171.815 53.8389 178.36 67.7132 180.09 82.1225C181.811 96.407 178.735 110.745 172.867 124.191C161.222 150.941 138.075 175.266 115.872 191.093C113.284 192.945 110.182 193.94 107 193.94C103.818 193.94 100.716 192.945 98.1279 191.093C75.9254 175.266 52.7777 150.932 41.1236 124.191C35.2654 110.745 32.198 96.407 33.91 82.1136C35.6399 67.7132 42.1847 53.8478 54.7483 41.4447ZM82.4791 89.1667C82.4791 82.6634 85.0626 76.4264 89.6611 71.8279C94.2597 67.2293 100.497 64.6459 107 64.6459C113.503 64.6459 119.74 67.2293 124.339 71.8279C128.937 76.4264 131.521 82.6634 131.521 89.1667C131.521 95.67 128.937 101.907 124.339 106.506C119.74 111.104 113.503 113.688 107 113.688C100.497 113.688 94.2597 111.104 89.6611 106.506C85.0626 101.907 82.4791 95.67 82.4791 89.1667Z" fill="#57402B"/>
<path fill-rule="evenodd" clip-rule="evenodd" d="M108.493 71.2057C107.542 70.9314 106.533 70.9314 105.583 71.2057C103.55 71.7854 101.501 72.3181 99.4412 72.8546C90.2645 75.2516 80.1555 77.8954 71.5115 84.9454L67.4381 88.2746C64.1873 90.9261 64.1873 96.1196 67.4381 98.7712L71.4488 102.038C74.2836 104.335 77.3765 106.295 80.6647 107.877V126.008C80.6648 128.176 81.3195 130.294 82.5431 132.085C83.7668 133.875 85.5024 135.254 87.5228 136.042L103.189 142.152C105.706 143.133 108.499 143.133 111.015 142.152L126.682 136.042C128.702 135.254 130.438 133.875 131.661 132.085C132.885 130.294 133.54 128.176 133.54 126.008V107.913C136.805 106.335 139.876 104.384 142.693 102.1L143.331 101.579V120.94C143.331 121.719 143.641 122.466 144.192 123.017C144.743 123.568 145.49 123.877 146.269 123.877C147.048 123.877 147.795 123.568 148.346 123.017C148.897 122.466 149.206 121.719 149.206 120.94V93.5229C149.206 91.5646 148.392 89.5984 146.766 88.2746L142.756 85.0081C134.045 77.9189 123.513 75.1694 114.618 72.8507C112.566 72.3141 110.521 71.7815 108.493 71.2057ZM92.6105 108.453C92.2567 108.299 91.876 108.217 91.4902 108.21C91.1044 108.204 90.7211 108.273 90.3621 108.414C90.0032 108.556 89.6756 108.767 89.3981 109.035C89.1206 109.303 88.8986 109.623 88.7448 109.977C88.591 110.331 88.5084 110.711 88.5018 111.097C88.4951 111.483 88.5645 111.866 88.706 112.225C88.8474 112.584 89.0582 112.912 89.3263 113.189C89.5944 113.467 89.9145 113.689 90.2684 113.843C95.2739 116.016 100.452 117.798 105.763 119.161C106.687 119.396 107.658 119.396 108.583 119.161C113.867 117.804 119.034 116.024 124.034 113.839C124.724 113.512 125.259 112.929 125.527 112.214C125.795 111.499 125.774 110.708 125.468 110.008C125.163 109.309 124.597 108.756 123.89 108.466C123.184 108.176 122.393 108.173 121.684 108.457C116.996 110.502 112.147 112.178 107.173 113.459C102.195 112.175 97.3257 110.501 92.6105 108.453Z" fill="#F6F5F5"/>
</svg>
