<svg width="214" height="214" viewBox="0 0 214 214" fill="none" xmlns="http://www.w3.org/2000/svg">
<path d="M54.7483 41.4447C68.6776 27.7259 87.4492 20.0443 107 20.0625C126.581 20.0625 145.377 27.7398 159.252 41.4447C171.815 53.8389 178.36 67.7132 180.09 82.1225C181.811 96.407 178.735 110.745 172.867 124.191C161.222 150.941 138.075 175.266 115.872 191.093C113.284 192.945 110.182 193.94 107 193.94C103.818 193.94 100.716 192.945 98.1279 191.093C75.9254 175.266 52.7777 150.932 41.1236 124.191C35.2654 110.745 32.198 96.407 33.91 82.1136C35.6399 67.7132 42.1847 53.8478 54.7483 41.4447ZM82.4791 89.1667C82.4791 82.6634 85.0626 76.4264 89.6611 71.8279C94.2597 67.2293 100.497 64.6459 107 64.6459C113.503 64.6459 119.74 67.2293 124.339 71.8279C128.937 76.4264 131.521 82.6634 131.521 89.1667C131.521 95.67 128.937 101.907 124.339 106.506C119.74 111.104 113.503 113.688 107 113.688C100.497 113.688 94.2597 111.104 89.6611 106.506C85.0626 101.907 82.4791 95.67 82.4791 89.1667Z" fill="#DCA579"/>
<path d="M137.625 135.167H144.542V142.083H68.4585V135.167H75.3752V76.3751C75.3752 75.4579 75.7395 74.5782 76.3881 73.9297C77.0366 73.2811 77.9163 72.9167 78.8335 72.9167H134.167C135.084 72.9167 135.964 73.2811 136.612 73.9297C137.261 74.5782 137.625 75.4579 137.625 76.3751V135.167ZM103.042 93.6667H96.1252V100.583H103.042V107.5H109.958V100.583H116.875V93.6667H109.958V86.7501H103.042V93.6667ZM113.417 135.167H120.333V114.417H92.6668V135.167H99.5835V121.333H113.417V135.167Z" fill="#F6F5F5"/>
</svg>
