<svg width="214" height="214" viewBox="0 0 214 214" fill="none" xmlns="http://www.w3.org/2000/svg">
<path d="M54.7483 41.4447C68.6776 27.7259 87.4492 20.0443 107 20.0625C126.581 20.0625 145.377 27.7398 159.252 41.4447C171.815 53.8389 178.36 67.7132 180.09 82.1225C181.811 96.407 178.735 110.745 172.867 124.191C161.222 150.941 138.075 175.266 115.872 191.093C113.284 192.945 110.182 193.94 107 193.94C103.818 193.94 100.716 192.945 98.1279 191.093C75.9254 175.266 52.7777 150.932 41.1236 124.191C35.2654 110.745 32.198 96.407 33.91 82.1136C35.6399 67.7132 42.1847 53.8478 54.7483 41.4447ZM82.4791 89.1667C82.4791 82.6634 85.0626 76.4264 89.6611 71.8279C94.2597 67.2293 100.497 64.6459 107 64.6459C113.503 64.6459 119.74 67.2293 124.339 71.8279C128.937 76.4264 131.521 82.6634 131.521 89.1667C131.521 95.67 128.937 101.907 124.339 106.506C119.74 111.104 113.503 113.688 107 113.688C100.497 113.688 94.2597 111.104 89.6611 106.506C85.0626 101.907 82.4791 95.67 82.4791 89.1667Z" fill="#DCA579"/>
<path d="M89.0354 93.8395C87.825 93.8395 86.9754 93.594 86.4866 93.1029C85.9978 92.6118 85.7523 91.7622 85.75 90.5541C85.75 88.2485 86.2976 86.1159 87.3927 84.1562C88.4878 82.1964 89.9576 80.5826 91.8021 79.3145L106.5 69.4583L121.198 79.3145C123.042 80.5826 124.512 82.1964 125.607 84.1562C126.702 86.1159 127.25 88.2485 127.25 90.5541C127.25 91.7645 127.004 92.6153 126.513 93.1063C126.022 93.5974 125.173 93.8418 123.965 93.8395H89.0354ZM68.4583 138.625V96.1739C67.4208 95.5399 66.5851 94.7191 65.951 93.7115C65.317 92.704 65 91.5363 65 90.2083C65 88.8803 65.6917 87.2664 67.075 85.3666C68.4583 83.4668 70.0722 81.6224 71.9167 79.8333C73.7611 81.6201 75.375 83.4645 76.7583 85.3666C78.1417 87.2687 78.8333 88.8826 78.8333 90.2083C78.8333 91.5339 78.5163 92.7017 77.8823 93.7115C77.2483 94.7214 76.4125 95.541 75.375 96.1704V110.958H82.2917V104.042C82.2917 102.601 82.7528 101.217 83.675 99.8916C84.5972 98.5659 85.9229 97.7013 87.6521 97.2978H125.348C127.077 97.7013 128.403 98.5659 129.325 99.8916C130.247 101.217 130.708 102.601 130.708 104.042V110.958H137.625V96.1739C136.588 95.5399 135.752 94.7191 135.118 93.7115C134.484 92.704 134.167 91.5363 134.167 90.2083C134.167 88.8803 134.858 87.2664 136.242 85.3666C137.625 83.4668 139.239 81.6224 141.083 79.8333C142.928 81.6201 144.542 83.4645 145.925 85.3666C147.308 87.2687 148 88.8826 148 90.2083C148 91.5339 147.683 92.7017 147.049 93.7115C146.415 94.7214 145.579 95.5422 144.542 96.1739V138.625H113.417V124.792C113.417 122.889 112.74 121.262 111.387 119.908C110.033 118.555 108.404 117.877 106.5 117.875C104.596 117.873 102.968 118.55 101.617 119.908C100.266 121.266 99.5879 122.894 99.5833 124.792V138.625H68.4583Z" fill="#FFFEFE"/>
</svg>
