<svg width="214" height="214" viewBox="0 0 214 214" fill="none" xmlns="http://www.w3.org/2000/svg">
<path d="M54.7483 41.4447C68.6776 27.7259 87.4492 20.0443 107 20.0625C126.581 20.0625 145.377 27.7398 159.252 41.4447C171.815 53.8389 178.36 67.7132 180.09 82.1225C181.811 96.407 178.735 110.745 172.867 124.191C161.222 150.941 138.075 175.266 115.872 191.093C113.284 192.945 110.182 193.94 107 193.94C103.818 193.94 100.716 192.945 98.1279 191.093C75.9254 175.266 52.7777 150.932 41.1236 124.191C35.2654 110.745 32.198 96.407 33.91 82.1136C35.6399 67.7132 42.1847 53.8478 54.7483 41.4447ZM82.4791 89.1667C82.4791 82.6634 85.0626 76.4264 89.6611 71.8279C94.2597 67.2293 100.497 64.6459 107 64.6459C113.503 64.6459 119.74 67.2293 124.339 71.8279C128.937 76.4264 131.521 82.6634 131.521 89.1667C131.521 95.67 128.937 101.907 124.339 106.506C119.74 111.104 113.503 113.688 107 113.688C100.497 113.688 94.2597 111.104 89.6611 106.506C85.0626 101.907 82.4791 95.67 82.4791 89.1667Z" fill="#DCA579"/>
<path fill-rule="evenodd" clip-rule="evenodd" d="M105.072 73.5909C106.437 73.0803 107.928 73.0137 109.333 73.4007L109.928 73.5909L134.136 82.6691C135.364 83.1293 136.435 83.9289 137.225 84.9747C138.016 86.0205 138.493 87.2694 138.601 88.5759L138.625 89.1465V107.694C138.625 113.298 137.112 118.797 134.245 123.613C131.379 128.428 127.266 132.381 122.34 135.052L121.42 135.533L109.821 141.333C109.182 141.652 108.484 141.835 107.771 141.872C107.058 141.909 106.346 141.798 105.677 141.547L105.179 141.333L93.5802 135.533C88.5677 133.027 84.3249 129.214 81.2997 124.496C78.2744 119.779 76.579 114.332 76.3923 108.731L76.375 107.694V89.1465C76.375 87.8362 76.7472 86.5529 77.4482 85.446C78.1493 84.339 79.1503 83.454 80.3348 82.8938L80.8639 82.6691L105.072 73.5909ZM119.372 95.8418L103.471 111.743L97.3567 105.629C96.7078 104.98 95.8278 104.616 94.9104 104.617C93.9931 104.617 93.1134 104.982 92.4649 105.631C91.8164 106.28 91.4523 107.16 91.4526 108.077C91.453 108.994 91.8177 109.874 92.4666 110.522L100.78 118.836C101.134 119.19 101.553 119.47 102.015 119.661C102.476 119.853 102.971 119.951 103.471 119.951C103.971 119.951 104.466 119.853 104.927 119.661C105.389 119.47 105.808 119.19 106.162 118.836L124.263 100.732C124.593 100.413 124.856 100.031 125.038 99.6094C125.219 99.1874 125.314 98.7336 125.318 98.2744C125.322 97.8152 125.235 97.3599 125.061 96.9348C124.887 96.5098 124.63 96.1237 124.305 95.799C123.981 95.4743 123.595 95.2175 123.17 95.0436C122.745 94.8697 122.289 94.7822 121.83 94.7862C121.371 94.7902 120.917 94.8856 120.495 95.0668C120.073 95.2481 119.691 95.5115 119.372 95.8418Z" fill="white"/>
</svg>
