<svg width="7" height="4" viewBox="0 0 7 4" fill="none" xmlns="http://www.w3.org/2000/svg">
<path fill-rule="evenodd" clip-rule="evenodd" d="M3.79644 3.79607C3.6996 3.89288 3.56828 3.94727 3.43135 3.94727C3.29442 3.94727 3.1631 3.89288 3.06626 3.79607L0.144989 0.874803C0.0509227 0.777409 -0.00112745 0.646965 4.93989e-05 0.511567C0.00122577 0.376169 0.0555351 0.24665 0.15128 0.150905C0.247024 0.0551609 0.376544 0.000851779 0.511942 -0.000324804C0.64734 -0.00150115 0.777783 0.0505487 0.875177 0.144615L3.43135 2.70079L5.98752 0.144616C6.08492 0.0505492 6.21536 -0.00150066 6.35076 -0.000324294C6.48616 0.000852314 6.61568 0.0551615 6.71142 0.150906C6.80717 0.24665 6.86148 0.37617 6.86265 0.511568C6.86383 0.646966 6.81178 0.77741 6.71771 0.874804L3.79644 3.79607Z" fill="white"/>
</svg>
