<svg width="7" height="4" viewBox="0 0 7 4" fill="none" xmlns="http://www.w3.org/2000/svg">
<path fill-rule="evenodd" clip-rule="evenodd" d="M3.06623 0.151195C3.16307 0.0543848 3.29439 0 3.43132 0C3.56825 0 3.69958 0.0543848 3.79641 0.151195L6.71768 3.07246C6.81175 3.16986 6.8638 3.3003 6.86262 3.4357C6.86145 3.5711 6.80714 3.70062 6.71139 3.79636C6.61565 3.8921 6.48613 3.94641 6.35073 3.94759C6.21533 3.94877 6.08489 3.89672 5.98749 3.80265L3.43132 1.24648L0.875147 3.80265C0.777753 3.89672 0.647309 3.94877 0.511911 3.94759C0.376513 3.94641 0.246994 3.8921 0.15125 3.79636C0.0555051 3.70062 0.00119611 3.5711 1.95369e-05 3.4357C-0.00115704 3.3003 0.050893 3.16986 0.144959 3.07246L3.06623 0.151195Z" fill="white"/>
</svg>
