<svg width="214" height="214" viewBox="0 0 214 214" fill="none" xmlns="http://www.w3.org/2000/svg" class="debounced-building">
  <style>
    .debounced-building {
      animation: pulseGlow 2s infinite;
      transform-origin: center;
    }

    @keyframes pulseGlow {
      0% {
        transform: scale(1);
        filter: drop-shadow(0 0 0 rgba(220, 165, 121, 0));
      }
      50% {
        transform: scale(1.15);
        filter: drop-shadow(0 0 12px rgba(220, 165, 121, 0.6));
      }
      100% {
        transform: scale(1);
        filter: drop-shadow(0 0 0 rgba(220, 165, 121, 0));
      }
    }
  </style>

  <path d="M54.7483 41.4447C68.6776 27.7259 87.4492 20.0443 107 20.0625C126.581 20.0625 145.377 27.7398 159.252 41.4447C171.815 53.8389 178.36 67.7132 180.09 82.1225C181.811 96.407 178.735 110.745 172.867 124.191C161.222 150.941 138.075 175.266 115.872 191.093C113.284 192.945 110.182 193.94 107 193.94C103.818 193.94 100.716 192.945 98.1279 191.093C75.9254 175.266 52.7777 150.932 41.1236 124.191C35.2654 110.745 32.198 96.407 33.91 82.1136C35.6399 67.7132 42.1847 53.8478 54.7483 41.4447ZM82.4791 89.1667C82.4791 82.6634 85.0626 76.4264 89.6611 71.8279C94.2597 67.2293 100.497 64.6459 107 64.6459C113.503 64.6459 119.74 67.2293 124.339 71.8279C128.937 76.4264 131.521 82.6634 131.521 89.1667C131.521 95.67 128.937 101.907 124.339 106.506C119.74 111.104 113.503 113.688 107 113.688C100.497 113.688 94.2597 111.104 89.6611 106.506C85.0626 101.907 82.4791 95.67 82.4791 89.1667Z" fill="#57402B"/>
  <path fill-rule="evenodd" clip-rule="evenodd" d="M108.493 57.2057C107.542 56.9314 106.533 56.9314 105.583 57.2057C103.55 57.7854 101.501 58.3181 99.4412 58.8546C90.2645 61.2516 80.1555 63.8954 71.5115 70.9454L67.4381 74.2746C64.1873 76.9261 64.1873 82.1196 67.4381 84.7712L71.4488 88.0377C74.2836 90.3355 77.3765 92.2953 80.6647 93.8775V112.008C80.6648 114.176 81.3195 116.294 82.5431 118.085C83.7668 119.875 85.5024 121.254 87.5228 122.042L103.189 128.152C105.706 129.133 108.499 129.133 111.015 128.152L126.682 122.042C128.702 121.254 130.438 119.875 131.661 118.085C132.885 116.294 133.54 114.176 133.54 112.008V93.9127C136.805 92.3349 139.876 90.3845 142.693 88.1004L143.331 87.5795V106.94C143.331 107.719 143.641 108.466 144.192 109.017C144.743 109.568 145.49 109.877 146.269 109.877C147.048 109.877 147.795 109.568 148.346 109.017C148.897 108.466 149.206 107.719 149.206 106.94V79.5229C149.206 77.5646 148.392 75.5984 146.766 74.2746L142.756 71.0081C134.045 63.9189 123.513 61.1694 114.618 58.8507C112.566 58.3141 110.521 57.7815 108.493 57.2057ZM92.6105 94.4532C92.2567 94.2994 91.876 94.2169 91.4902 94.2102C91.1044 94.2035 90.7211 94.2729 90.3621 94.4144C90.0032 94.5559 89.6756 94.7667 89.3981 95.0348C89.1206 95.3028 88.8986 95.6229 88.7448 95.9768C88.591 96.3307 88.5084 96.7114 88.5018 97.0972C88.4951 97.4829 88.5645 97.8663 88.706 98.2252C88.8474 98.5842 89.0582 98.9118 89.3263 99.1893C89.5944 99.4668 89.9145 99.6888 90.2684 99.8426C95.2739 102.016 100.452 103.798 105.763 105.161C106.687 105.396 107.658 105.396 108.583 105.161C113.867 103.804 119.034 102.024 124.034 99.8386C124.724 99.5118 125.259 98.9291 125.527 98.2142C125.795 97.4992 125.774 96.7081 125.468 96.0085C125.163 95.3088 124.597 94.7556 123.89 94.466C123.184 94.1764 122.393 94.1733 121.684 94.4571C116.996 96.5016 112.147 98.178 107.173 99.4587C102.195 98.1751 97.3257 96.5014 92.6105 94.4532Z" fill="#F6F5F5"/>
</svg>
