<svg width="214" height="214" viewBox="0 0 214 214" fill="none" xmlns="http://www.w3.org/2000/svg">
<path d="M54.7483 41.4447C68.6776 27.7259 87.4492 20.0443 107 20.0625C126.581 20.0625 145.377 27.7398 159.252 41.4447C171.815 53.8389 178.36 67.7132 180.09 82.1225C181.811 96.407 178.735 110.745 172.867 124.191C161.222 150.941 138.075 175.266 115.872 191.093C113.284 192.945 110.182 193.94 107 193.94C103.818 193.94 100.716 192.945 98.1279 191.093C75.9254 175.266 52.7777 150.932 41.1236 124.191C35.2654 110.745 32.198 96.407 33.91 82.1136C35.6399 67.7132 42.1847 53.8478 54.7483 41.4447ZM82.4791 89.1667C82.4791 82.6634 85.0626 76.4264 89.6611 71.8279C94.2597 67.2293 100.497 64.6459 107 64.6459C113.503 64.6459 119.74 67.2293 124.339 71.8279C128.937 76.4264 131.521 82.6634 131.521 89.1667C131.521 95.67 128.937 101.907 124.339 106.506C119.74 111.104 113.503 113.688 107 113.688C100.497 113.688 94.2597 111.104 89.6611 106.506C85.0626 101.907 82.4791 95.67 82.4791 89.1667Z" fill="#DCA579"/>
<g clip-path="url(#clip0_4059_8678)">
<path d="M107 89.7998C106.257 89.7998 105.545 90.0948 105.02 90.6199C104.495 91.145 104.2 91.8572 104.2 92.5998C104.2 93.3424 104.495 94.0546 105.02 94.5797C105.545 95.1048 106.257 95.3998 107 95.3998C107.743 95.3998 108.455 95.1048 108.98 94.5797C109.505 94.0546 109.8 93.3424 109.8 92.5998C109.8 91.8572 109.505 91.145 108.98 90.6199C108.455 90.0948 107.743 89.7998 107 89.7998Z" fill="#F6F5F5"/>
<path fill-rule="evenodd" clip-rule="evenodd" d="M132.2 79.6696L109.8 68.4696V61.8H126.6V45H104.2V68.4696L81.8 79.6696V89.8H70.6V123.4H65V129H98.6V106.6H115.4V129H149V123.4H143.4V89.8H132.2V79.6696ZM137.8 123.4V95.4H132.2V123.4H137.8ZM81.8 123.4H76.2V95.4H81.8V123.4ZM98.6 92.6C98.6 90.3722 99.485 88.2356 101.06 86.6603C102.636 85.085 104.772 84.2 107 84.2C109.228 84.2 111.364 85.085 112.94 86.6603C114.515 88.2356 115.4 90.3722 115.4 92.6C115.4 94.8278 114.515 96.9644 112.94 98.5397C111.364 100.115 109.228 101 107 101C104.772 101 102.636 100.115 101.06 98.5397C99.485 96.9644 98.6 94.8278 98.6 92.6Z" fill="#F6F5F5"/>
<path d="M109.8 129V112.2H104.2V129H109.8Z" fill="#F6F5F5"/>
</g>
<defs>
<clipPath id="clip0_4059_8678">
<rect width="84" height="84" fill="white" transform="translate(65 45)"/>
</clipPath>
</defs>
</svg>
