<svg width="214" height="214" viewBox="0 0 214 214" fill="none" xmlns="http://www.w3.org/2000/svg" class="debounced-building">
  <style>
    .debounced-building {
      animation: pulseGlow 2s infinite;
      transform-origin: center;
    }

    @keyframes pulseGlow {
      0% {
        transform: scale(1);
        filter: drop-shadow(0 0 0 rgba(220, 165, 121, 0));
      }
      50% {
        transform: scale(1.15);
        filter: drop-shadow(0 0 12px rgba(220, 165, 121, 0.6));
      }
      100% {
        transform: scale(1);
        filter: drop-shadow(0 0 0 rgba(220, 165, 121, 0));
      }
    }
  </style>

  <path d="M54.7483 41.4447C68.6776 27.7259 87.4492 20.0443 107 20.0625C126.581 20.0625 145.377 27.7398 159.252 41.4447C171.815 53.8389 178.36 67.7132 180.09 82.1225C181.811 96.407 178.735 110.745 172.867 124.191C161.222 150.941 138.075 175.266 115.872 191.093C113.284 192.945 110.182 193.94 107 193.94C103.818 193.94 100.716 192.945 98.1279 191.093C75.9254 175.266 52.7777 150.932 41.1236 124.191C35.2654 110.745 32.198 96.407 33.91 82.1136C35.6399 67.7132 42.1847 53.8478 54.7483 41.4447ZM82.4791 89.1667C82.4791 82.6634 85.0626 76.4264 89.6611 71.8279C94.2597 67.2293 100.497 64.6459 107 64.6459C113.503 64.6459 119.74 67.2293 124.339 71.8279C128.937 76.4264 131.521 82.6634 131.521 89.1667C131.521 95.67 128.937 101.907 124.339 106.506C119.74 111.104 113.503 113.688 107 113.688C100.497 113.688 94.2597 111.104 89.6611 106.506C85.0626 101.907 82.4791 95.67 82.4791 89.1667Z" fill="#57402B"/>
  
  <path d="M137.625 122.167H144.542V129.083H68.4585V122.167H75.3752V63.3748C75.3752 62.4576 75.7395 61.578 76.3881 60.9294C77.0366 60.2809 77.9163 59.9165 78.8335 59.9165H134.167C135.084 59.9165 135.964 60.2809 136.612 60.9294C137.261 61.578 137.625 62.4576 137.625 63.3748V122.167ZM103.042 80.6665H96.1252V87.5832H103.042V94.4998H109.958V87.5832H116.875V80.6665H109.958V73.7498H103.042V80.6665ZM113.417 122.167H120.333V101.417H92.6668V122.167H99.5835V108.333H113.417V122.167Z" fill="#F6F5F5"/>
</svg>
