<svg width="214" height="214" viewBox="0 0 214 214" fill="none" xmlns="http://www.w3.org/2000/svg">
<path d="M54.7483 41.4447C68.6776 27.7259 87.4492 20.0443 107 20.0625C126.581 20.0625 145.377 27.7398 159.252 41.4447C171.815 53.8389 178.36 67.7132 180.09 82.1225C181.811 96.407 178.735 110.745 172.867 124.191C161.222 150.941 138.075 175.266 115.872 191.093C113.284 192.945 110.182 193.94 107 193.94C103.818 193.94 100.716 192.945 98.1279 191.093C75.9254 175.266 52.7777 150.932 41.1236 124.191C35.2654 110.745 32.198 96.407 33.91 82.1136C35.6399 67.7132 42.1847 53.8478 54.7483 41.4447ZM82.4791 89.1667C82.4791 82.6634 85.0626 76.4264 89.6611 71.8279C94.2597 67.2293 100.497 64.6459 107 64.6459C113.503 64.6459 119.74 67.2293 124.339 71.8279C128.937 76.4264 131.521 82.6634 131.521 89.1667C131.521 95.67 128.937 101.907 124.339 106.506C119.74 111.104 113.503 113.688 107 113.688C100.497 113.688 94.2597 111.104 89.6611 106.506C85.0626 101.907 82.4791 95.67 82.4791 89.1667Z" fill="#DCA579"/>
<path d="M137.625 117.708H144.542V124.625H68.4585V117.708H75.3752V65.8333C75.3752 64.9161 75.7395 64.0365 76.3881 63.3879C77.0366 62.7394 77.9163 62.375 78.8335 62.375H113.417C114.334 62.375 115.214 62.7394 115.862 63.3879C116.511 64.0365 116.875 64.9161 116.875 65.8333V117.708H123.792V83.125H134.167C135.084 83.125 135.964 83.4894 136.612 84.1379C137.261 84.7865 137.625 85.6661 137.625 86.5833V117.708ZM89.2085 90.0417V96.9583H103.042V90.0417H89.2085ZM89.2085 76.2083V83.125H103.042V76.2083H89.2085Z" fill="#F6F5F5"/>
</svg>
