<svg width="214" height="214" viewBox="0 0 214 214" fill="none" xmlns="http://www.w3.org/2000/svg" class="debounced-building">
  <style>
    .debounced-building {
      animation: pulseGlow 2s infinite;
      transform-origin: center;
    }

    @keyframes pulseGlow {
      0% {
        transform: scale(1);
        filter: drop-shadow(0 0 0px rgba(220, 165, 121, 0));
      }
      50% {
        transform: scale(1.15);
        filter: drop-shadow(0 0 12px rgba(220, 165, 121, 0.6));
      }
      100% {
        transform: scale(1);
        filter: drop-shadow(0 0 0px rgba(220, 165, 121, 0));
      }
    }
  </style>

  <path d="M54.7483 41.4447C68.6776 27.7259 87.4492 20.0443 107 20.0625C126.581 20.0625 145.377 27.7398 159.252 41.4447C171.815 53.8389 178.36 67.7132 180.09 82.1225C181.811 96.407 178.735 110.745 172.867 124.191C161.222 150.941 138.075 175.266 115.872 191.093C113.284 192.945 110.182 193.94 107 193.94C103.818 193.94 100.716 192.945 98.1279 191.093C75.9254 175.266 52.7777 150.932 41.1236 124.191C35.2654 110.745 32.198 96.407 33.91 82.1136C35.6399 67.7132 42.1847 53.8478 54.7483 41.4447ZM82.4791 89.1667C82.4791 82.6634 85.0626 76.4264 89.6611 71.8279C94.2597 67.2293 100.497 64.6459 107 64.6459C113.503 64.6459 119.74 67.2293 124.339 71.8279C128.937 76.4264 131.521 82.6634 131.521 89.1667C131.521 95.67 128.937 101.907 124.339 106.506C119.74 111.104 113.503 113.688 107 113.688C100.497 113.688 94.2597 111.104 89.6611 106.506C85.0626 101.907 82.4791 95.67 82.4791 89.1667Z" fill="#57402B"/>
  
  <path d="M73.9545 65.4675C73.2381 66.8925 72.8858 68.658 72.1812 72.1809L69.8141 84.0163C69.4786 85.63 69.476 87.2952 69.8065 88.91C70.1369 90.5247 70.7934 92.055 71.7358 93.4073C72.6782 94.7595 73.8867 95.9051 75.2872 96.7741C76.6878 97.643 78.2509 98.217 79.881 98.4608C81.5111 98.7047 83.1738 98.6133 84.7673 98.1922C86.3608 97.7712 87.8517 97.0293 89.1485 96.0121C90.4454 94.9949 91.521 93.7237 92.3095 92.2763C93.098 90.8289 93.5828 89.2359 93.7343 87.5946L94.0114 84.8634C93.8614 86.6004 94.0754 88.3497 94.6397 89.9994C95.204 91.6491 96.1062 93.1629 97.2887 94.4442C98.4712 95.7254 99.908 96.7459 101.507 97.4404C103.106 98.135 104.833 98.4883 106.576 98.4778C108.32 98.4673 110.042 98.0932 111.633 97.3794C113.224 96.6657 114.648 95.6279 115.815 94.3325C116.982 93.0371 117.866 91.5125 118.41 89.8562C118.955 88.1998 119.148 86.4481 118.977 84.713L119.266 87.5946C119.417 89.2359 119.902 90.8289 120.69 92.2763C121.479 93.7237 122.554 94.9949 123.851 96.0121C125.148 97.0293 126.639 97.7712 128.233 98.1922C129.826 98.6133 131.489 98.7047 133.119 98.4608C134.749 98.217 136.312 97.643 137.713 96.7741C139.113 95.9051 140.322 94.7595 141.264 93.4073C142.206 92.055 142.863 90.5247 143.193 88.91C143.524 87.2952 143.521 85.63 143.186 84.0163L140.819 72.1809C140.114 68.658 139.762 66.8965 139.045 65.4675C138.299 63.9794 137.248 62.6648 135.96 61.6092C134.673 60.5535 133.178 59.7804 131.572 59.34C130.028 58.9165 128.231 58.9165 124.637 58.9165H88.3628C84.7687 58.9165 82.9716 58.9165 81.4278 59.34C79.8222 59.7804 78.3271 60.5535 77.0396 61.6092C75.7522 62.6648 74.701 63.9794 73.9545 65.4675ZM131.315 104.437C134.407 104.445 137.45 103.653 140.146 102.138V106.417C140.146 121.343 140.146 128.809 135.507 133.444C131.774 137.181 126.212 137.905 116.396 138.048V124.229C116.396 120.528 116.396 118.679 115.6 117.302C115.079 116.399 114.33 115.65 113.427 115.129C112.05 114.333 110.201 114.333 106.5 114.333C102.799 114.333 100.95 114.333 99.5728 115.129C98.6703 115.65 97.9208 116.399 97.3997 117.302C96.6041 118.679 96.6041 120.528 96.6041 124.229V138.048C86.7874 137.905 81.226 137.177 77.4933 133.444C72.8541 128.809 72.8541 121.343 72.8541 106.417V102.138C75.5514 103.654 78.595 104.446 81.6891 104.437C86.2635 104.44 90.6676 102.702 94.0074 99.5765C97.4105 102.713 101.872 104.449 106.5 104.437C111.128 104.449 115.589 102.713 118.992 99.5765C122.332 102.702 126.74 104.44 131.315 104.437Z" fill="#F6F5F5"/>
</svg>